<mxfile host="app.diagrams.net" agent="Mozilla/5.0 (Windows NT 10.0; Win64; x64) AppleWebKit/537.36 (KHTML, like Gecko) Chrome/130.0.0.0 Safari/537.36 Edg/130.0.0.0" version="24.8.6">
  <diagram name="PÃ¡gina-1" id="Nmt05jYtDhRZ0Mxqj_Jg">
    <mxGraphModel dx="1426" dy="747" grid="1" gridSize="10" guides="1" tooltips="1" connect="1" arrows="1" fold="1" page="1" pageScale="1" pageWidth="1169" pageHeight="827" math="0" shadow="0">
      <root>
        <mxCell id="0" />
        <mxCell id="1" parent="0" />
        <mxCell id="wn1venfJKD_Di8Lajpe5-1" value="" style="endArrow=cross;html=1;rounded=0;fillColor=#e51400;strokeColor=#B20000;dashed=1;strokeWidth=2;fontSize=13;align=right;fontStyle=0;endFill=0;" edge="1" parent="1">
          <mxGeometry width="50" height="50" relative="1" as="geometry">
            <mxPoint x="945" y="55.20999999999998" as="sourcePoint" />
            <mxPoint x="1001" y="55" as="targetPoint" />
          </mxGeometry>
        </mxCell>
        <mxCell id="wn1venfJKD_Di8Lajpe5-2" value="Return the blocked status" style="text;html=1;align=right;verticalAlign=middle;whiteSpace=wrap;rounded=0;fontSize=13;fontStyle=0" vertex="1" parent="1">
          <mxGeometry x="790" y="40" width="150" height="30" as="geometry" />
        </mxCell>
        <mxCell id="wn1venfJKD_Di8Lajpe5-3" value="" style="edgeStyle=orthogonalEdgeStyle;rounded=0;orthogonalLoop=1;jettySize=auto;html=1;endArrow=cross;endFill=0;fillColor=#e51400;strokeColor=#B20000;strokeWidth=2;fontSize=13;align=right;fontStyle=0" edge="1" parent="1">
          <mxGeometry relative="1" as="geometry">
            <mxPoint x="945" y="85" as="sourcePoint" />
            <mxPoint x="1001" y="85" as="targetPoint" />
          </mxGeometry>
        </mxCell>
        <mxCell id="wn1venfJKD_Di8Lajpe5-4" value="" style="edgeStyle=orthogonalEdgeStyle;rounded=0;orthogonalLoop=1;jettySize=auto;html=1;endArrow=block;endFill=1;fillColor=#d5e8d4;strokeColor=#82b366;strokeWidth=2;fontSize=13;align=right;fontStyle=0" edge="1" parent="1">
          <mxGeometry relative="1" as="geometry">
            <mxPoint x="945" y="115" as="sourcePoint" />
            <mxPoint x="1001" y="115" as="targetPoint" />
          </mxGeometry>
        </mxCell>
        <mxCell id="wn1venfJKD_Di8Lajpe5-5" value="" style="edgeStyle=orthogonalEdgeStyle;rounded=0;orthogonalLoop=1;jettySize=auto;html=1;endArrow=block;endFill=1;fillColor=#f0a30a;strokeColor=#BD7000;strokeWidth=2;fontSize=13;align=right;fontStyle=0" edge="1" parent="1">
          <mxGeometry relative="1" as="geometry">
            <mxPoint x="945" y="145" as="sourcePoint" />
            <mxPoint x="1001" y="145" as="targetPoint" />
          </mxGeometry>
        </mxCell>
        <mxCell id="wn1venfJKD_Di8Lajpe5-6" value="Status: Bloqued" style="text;html=1;align=right;verticalAlign=middle;whiteSpace=wrap;rounded=0;fontSize=13;fontStyle=0" vertex="1" parent="1">
          <mxGeometry x="836" y="70" width="104" height="30" as="geometry" />
        </mxCell>
        <mxCell id="wn1venfJKD_Di8Lajpe5-7" value="Status: Success" style="text;html=1;align=right;verticalAlign=middle;whiteSpace=wrap;rounded=0;fontSize=13;fontStyle=0" vertex="1" parent="1">
          <mxGeometry x="821" y="100" width="119" height="30" as="geometry" />
        </mxCell>
        <mxCell id="wn1venfJKD_Di8Lajpe5-8" value="Status: Pending" style="text;html=1;align=right;verticalAlign=middle;whiteSpace=wrap;rounded=0;fontSize=13;fontStyle=0" vertex="1" parent="1">
          <mxGeometry x="820" y="130" width="119" height="30" as="geometry" />
        </mxCell>
        <mxCell id="wn1venfJKD_Di8Lajpe5-9" value="&lt;span style=&quot;font-size: 13px;&quot;&gt;Transaction not authorized by the Parner/BCB&lt;/span&gt;" style="swimlane;whiteSpace=wrap;html=1;fillColor=#f5f5f5;fontColor=#333333;strokeColor=#666666;" vertex="1" parent="1">
          <mxGeometry x="120" y="40" width="640" height="640" as="geometry" />
        </mxCell>
        <mxCell id="wn1venfJKD_Di8Lajpe5-10" value="" style="edgeStyle=orthogonalEdgeStyle;rounded=0;orthogonalLoop=1;jettySize=auto;html=1;fillColor=#d5e8d4;strokeColor=#82b366;strokeWidth=2;endArrow=block;endFill=1;" edge="1" parent="wn1venfJKD_Di8Lajpe5-9" source="wn1venfJKD_Di8Lajpe5-11" target="wn1venfJKD_Di8Lajpe5-13">
          <mxGeometry relative="1" as="geometry" />
        </mxCell>
        <mxCell id="wn1venfJKD_Di8Lajpe5-11" value="Client" style="shape=actor;whiteSpace=wrap;html=1;verticalAlign=bottom;labelPosition=center;verticalLabelPosition=top;align=center;fillColor=#f5f5f5;fontColor=#333333;strokeColor=#666666;fontStyle=1" vertex="1" parent="wn1venfJKD_Di8Lajpe5-9">
          <mxGeometry x="130" y="60" width="40" height="60" as="geometry" />
        </mxCell>
        <mxCell id="wn1venfJKD_Di8Lajpe5-12" value="" style="edgeStyle=orthogonalEdgeStyle;rounded=0;orthogonalLoop=1;jettySize=auto;html=1;fillColor=#d5e8d4;strokeColor=#82b366;strokeWidth=2;endArrow=block;endFill=1;" edge="1" parent="wn1venfJKD_Di8Lajpe5-9" source="wn1venfJKD_Di8Lajpe5-13" target="wn1venfJKD_Di8Lajpe5-15">
          <mxGeometry relative="1" as="geometry" />
        </mxCell>
        <mxCell id="wn1venfJKD_Di8Lajpe5-13" value="API Gateway" style="rounded=0;whiteSpace=wrap;html=1;fontStyle=1" vertex="1" parent="wn1venfJKD_Di8Lajpe5-9">
          <mxGeometry x="95" y="160" width="110" height="50" as="geometry" />
        </mxCell>
        <mxCell id="wn1venfJKD_Di8Lajpe5-14" value="" style="edgeStyle=orthogonalEdgeStyle;rounded=0;orthogonalLoop=1;jettySize=auto;html=1;fillColor=#d5e8d4;strokeColor=#82b366;strokeWidth=2;endArrow=block;endFill=1;" edge="1" parent="wn1venfJKD_Di8Lajpe5-9" source="wn1venfJKD_Di8Lajpe5-15" target="wn1venfJKD_Di8Lajpe5-17">
          <mxGeometry relative="1" as="geometry" />
        </mxCell>
        <mxCell id="wn1venfJKD_Di8Lajpe5-15" value="Pix System" style="shape=cube;whiteSpace=wrap;html=1;boundedLbl=1;backgroundOutline=1;darkOpacity=0.05;darkOpacity2=0.1;fillColor=#dae8fc;strokeColor=#6c8ebf;fontStyle=1" vertex="1" parent="wn1venfJKD_Di8Lajpe5-9">
          <mxGeometry x="90" y="250" width="120" height="80" as="geometry" />
        </mxCell>
        <mxCell id="wn1venfJKD_Di8Lajpe5-16" value="" style="edgeStyle=orthogonalEdgeStyle;rounded=0;orthogonalLoop=1;jettySize=auto;html=1;strokeWidth=2;fillColor=#d5e8d4;strokeColor=#82b366;endArrow=block;endFill=1;" edge="1" parent="wn1venfJKD_Di8Lajpe5-9" source="wn1venfJKD_Di8Lajpe5-17" target="wn1venfJKD_Di8Lajpe5-20">
          <mxGeometry relative="1" as="geometry" />
        </mxCell>
        <mxCell id="wn1venfJKD_Di8Lajpe5-17" value="Moria (Authorizer)" style="rounded=0;whiteSpace=wrap;html=1;fontStyle=1" vertex="1" parent="wn1venfJKD_Di8Lajpe5-9">
          <mxGeometry x="95" y="370" width="110" height="50" as="geometry" />
        </mxCell>
        <mxCell id="wn1venfJKD_Di8Lajpe5-27" value="" style="edgeStyle=orthogonalEdgeStyle;rounded=0;orthogonalLoop=1;jettySize=auto;html=1;fillColor=#d5e8d4;strokeColor=#82b366;strokeWidth=2;endArrow=block;endFill=1;" edge="1" parent="wn1venfJKD_Di8Lajpe5-9" source="wn1venfJKD_Di8Lajpe5-20" target="wn1venfJKD_Di8Lajpe5-26">
          <mxGeometry relative="1" as="geometry" />
        </mxCell>
        <mxCell id="wn1venfJKD_Di8Lajpe5-33" style="edgeStyle=orthogonalEdgeStyle;rounded=0;orthogonalLoop=1;jettySize=auto;html=1;entryX=0;entryY=0.5;entryDx=0;entryDy=0;fillColor=#e51400;strokeColor=#B20000;strokeWidth=2;endArrow=cross;endFill=0;" edge="1" parent="wn1venfJKD_Di8Lajpe5-9" source="wn1venfJKD_Di8Lajpe5-20" target="wn1venfJKD_Di8Lajpe5-17">
          <mxGeometry relative="1" as="geometry">
            <Array as="points">
              <mxPoint x="70" y="470" />
              <mxPoint x="70" y="395" />
            </Array>
          </mxGeometry>
        </mxCell>
        <mxCell id="wn1venfJKD_Di8Lajpe5-20" value="Ledger" style="shape=cube;whiteSpace=wrap;html=1;boundedLbl=1;backgroundOutline=1;darkOpacity=0.05;darkOpacity2=0.1;fillColor=#dae8fc;strokeColor=#6c8ebf;fontStyle=1" vertex="1" parent="wn1venfJKD_Di8Lajpe5-9">
          <mxGeometry x="90" y="460" width="120" height="80" as="geometry" />
        </mxCell>
        <mxCell id="wn1venfJKD_Di8Lajpe5-31" style="edgeStyle=orthogonalEdgeStyle;rounded=0;orthogonalLoop=1;jettySize=auto;html=1;entryX=0.75;entryY=0;entryDx=0;entryDy=0;fillColor=#e51400;strokeColor=#B20000;strokeWidth=2;endArrow=cross;endFill=0;" edge="1" parent="wn1venfJKD_Di8Lajpe5-9" source="wn1venfJKD_Di8Lajpe5-21" target="wn1venfJKD_Di8Lajpe5-26">
          <mxGeometry relative="1" as="geometry">
            <Array as="points">
              <mxPoint x="570" y="440" />
              <mxPoint x="343" y="440" />
            </Array>
          </mxGeometry>
        </mxCell>
        <mxCell id="wn1venfJKD_Di8Lajpe5-21" value="&lt;div&gt;&lt;b&gt;Transaction authorized?&lt;/b&gt;&lt;/div&gt;" style="rhombus;whiteSpace=wrap;html=1;fillColor=#fff2cc;strokeColor=#d6b656;" vertex="1" parent="wn1venfJKD_Di8Lajpe5-9">
          <mxGeometry x="530" y="460" width="80" height="80" as="geometry" />
        </mxCell>
        <mxCell id="wn1venfJKD_Di8Lajpe5-24" value="No" style="text;html=1;align=center;verticalAlign=middle;whiteSpace=wrap;rounded=0;" vertex="1" parent="wn1venfJKD_Di8Lajpe5-9">
          <mxGeometry x="570" y="440" width="60" height="30" as="geometry" />
        </mxCell>
        <mxCell id="wn1venfJKD_Di8Lajpe5-29" value="" style="edgeStyle=orthogonalEdgeStyle;rounded=0;orthogonalLoop=1;jettySize=auto;html=1;fillColor=#d5e8d4;strokeColor=#82b366;strokeWidth=2;endArrow=block;endFill=1;" edge="1" parent="wn1venfJKD_Di8Lajpe5-9" source="wn1venfJKD_Di8Lajpe5-26" target="wn1venfJKD_Di8Lajpe5-28">
          <mxGeometry relative="1" as="geometry" />
        </mxCell>
        <mxCell id="wn1venfJKD_Di8Lajpe5-26" value="Transactions API" style="rounded=0;whiteSpace=wrap;html=1;fontStyle=1" vertex="1" parent="wn1venfJKD_Di8Lajpe5-9">
          <mxGeometry x="260" y="475" width="110" height="50" as="geometry" />
        </mxCell>
        <mxCell id="wn1venfJKD_Di8Lajpe5-30" value="" style="edgeStyle=orthogonalEdgeStyle;rounded=0;orthogonalLoop=1;jettySize=auto;html=1;fillColor=#f0a30a;strokeColor=#BD7000;strokeWidth=2;endArrow=block;endFill=1;" edge="1" parent="wn1venfJKD_Di8Lajpe5-9" source="wn1venfJKD_Di8Lajpe5-28" target="wn1venfJKD_Di8Lajpe5-21">
          <mxGeometry relative="1" as="geometry" />
        </mxCell>
        <mxCell id="wn1venfJKD_Di8Lajpe5-28" value="Partner" style="shape=actor;whiteSpace=wrap;html=1;verticalAlign=top;labelPosition=center;verticalLabelPosition=bottom;align=center;fillColor=#f5f5f5;fontColor=#333333;strokeColor=#666666;fontStyle=1" vertex="1" parent="wn1venfJKD_Di8Lajpe5-9">
          <mxGeometry x="425" y="470" width="40" height="60" as="geometry" />
        </mxCell>
        <mxCell id="wn1venfJKD_Di8Lajpe5-32" style="edgeStyle=orthogonalEdgeStyle;rounded=0;orthogonalLoop=1;jettySize=auto;html=1;entryX=0;entryY=0;entryDx=70;entryDy=80;entryPerimeter=0;fillColor=#e51400;strokeColor=#B20000;strokeWidth=2;endArrow=cross;endFill=0;" edge="1" parent="wn1venfJKD_Di8Lajpe5-9" source="wn1venfJKD_Di8Lajpe5-21" target="wn1venfJKD_Di8Lajpe5-20">
          <mxGeometry relative="1" as="geometry">
            <Array as="points">
              <mxPoint x="570" y="580" />
              <mxPoint x="160" y="580" />
            </Array>
          </mxGeometry>
        </mxCell>
        <mxCell id="wn1venfJKD_Di8Lajpe5-34" style="edgeStyle=orthogonalEdgeStyle;rounded=0;orthogonalLoop=1;jettySize=auto;html=1;fillColor=#e51400;strokeColor=#B20000;strokeWidth=2;endArrow=cross;endFill=0;" edge="1" parent="wn1venfJKD_Di8Lajpe5-9" source="wn1venfJKD_Di8Lajpe5-20">
          <mxGeometry relative="1" as="geometry">
            <mxPoint x="90" y="300" as="targetPoint" />
            <Array as="points">
              <mxPoint x="40" y="500" />
              <mxPoint x="40" y="300" />
              <mxPoint x="90" y="300" />
            </Array>
          </mxGeometry>
        </mxCell>
        <mxCell id="wn1venfJKD_Di8Lajpe5-35" style="edgeStyle=orthogonalEdgeStyle;rounded=0;orthogonalLoop=1;jettySize=auto;html=1;entryX=0.9;entryY=0.5;entryDx=0;entryDy=0;entryPerimeter=0;fillColor=#e51400;strokeColor=#B20000;dashed=1;strokeWidth=2;endArrow=cross;endFill=0;" edge="1" parent="wn1venfJKD_Di8Lajpe5-9" source="wn1venfJKD_Di8Lajpe5-15" target="wn1venfJKD_Di8Lajpe5-11">
          <mxGeometry relative="1" as="geometry">
            <Array as="points">
              <mxPoint x="280" y="290" />
              <mxPoint x="280" y="90" />
            </Array>
          </mxGeometry>
        </mxCell>
      </root>
    </mxGraphModel>
  </diagram>
</mxfile>
